<?xml version="1.0" encoding="iso-8859-1"?>
<!-- Uploaded to: SVG Repo, www.svgrepo.com, Generator: SVG Repo Mixer Tools -->
<svg fill="#000000" height="800px" width="800px" version="1.1" id="Layer_1" xmlns="http://www.w3.org/2000/svg" xmlns:xlink="http://www.w3.org/1999/xlink" 
	 viewBox="0 0 512 512" xml:space="preserve">
<g>
	<g>
		<g>
			<path d="M504.897,131.22H7.103c-3.922,0-7.103,3.181-7.103,7.103v235.355c0,3.922,3.181,7.103,7.103,7.103h497.795
				c3.922,0,7.103-3.181,7.103-7.103V138.322C512,134.401,508.819,131.22,504.897,131.22z M497.795,366.575H14.205v-221.15h483.59
				V366.575z"/>
			<path d="M30.778,357.105h450.444c3.922,0,7.103-3.181,7.103-7.103V161.998c0-3.923-3.181-7.103-7.103-7.103H30.778
				c-3.922,0-7.103,3.181-7.103,7.103v188.005C23.675,353.924,26.856,357.105,30.778,357.105z M109.51,342.9H65.13V222.168h44.379
				V342.9z M167.407,342.9h-22.385V194.61h22.385V342.9z M199.013,230.389c0,0.001,0,0.002,0,0.002V342.9h-17.4V194.61h17.4V230.389
				z M213.218,342.9v-64.896l19.8,64.896H213.218z M247.333,341.137l-32.35-106.033l16.646-5.077l32.35,106.032L247.333,341.137z
				 M444.206,337.573c0,2.937-2.39,5.327-5.327,5.327H323.463v-5.22h101.271c3.922,0,7.103-3.181,7.103-7.103
				c0-3.922-3.181-7.103-7.103-7.103H323.463v-5.528h40.508c3.922,0,7.103-3.181,7.103-7.103c0-3.922-3.181-7.103-7.103-7.103
				h-40.508v-5.232h115.417c2.937,0,5.327,2.395,5.327,5.339V337.573z M37.88,169.1H474.12v173.8h-16.466
				c0.482-1.696,0.758-3.478,0.758-5.327v-33.725c0-10.777-8.762-19.544-19.532-19.544H316.36h-16.312
				c-3.922,0-7.103,3.181-7.103,7.103s3.181,7.103,7.103,7.103h9.21V342.9H279.62c0.424-1.355,0.438-2.815,0.019-4.192
				l-36.495-119.619c-1.145-3.75-5.114-5.866-8.865-4.721l-21.059,6.423v-33.284c0-3.922-3.181-7.103-7.103-7.103H174.51h-36.59
				c-3.922,0-7.103,3.181-7.103,7.103V342.9h-7.103V215.066c0-3.922-3.181-7.103-7.103-7.103H58.028
				c-3.922,0-7.103,3.181-7.103,7.103V342.9H37.88V169.1z"/>
		</g>
	</g>
</g>
</svg>